<?xml version="1.0" encoding="UTF-8" standalone="no"?>
<svg
   xmlns:dc="http://purl.org/dc/elements/1.1/"
   xmlns:cc="http://creativecommons.org/ns#"
   xmlns:rdf="http://www.w3.org/1999/02/22-rdf-syntax-ns#"
   xmlns:svg="http://www.w3.org/2000/svg"
   xmlns="http://www.w3.org/2000/svg"
   id="svg8"
   version="1.1"
   viewBox="0 0 830 230"
   height="230mm"
   width="830mm">
  <defs
     id="defs2" />
  <metadata
     id="metadata5">
    <rdf:RDF>
      <cc:Work
         rdf:about="">
        <dc:format>image/svg+xml</dc:format>
        <dc:type
           rdf:resource="http://purl.org/dc/dcmitype/StillImage" />
        <dc:title></dc:title>
      </cc:Work>
    </rdf:RDF>
  </metadata>
  <g
     id="layer1">
    <path
       id="path10"
       d="m 62.441666,28.574993 -4.35e-4,89.921387 v 0 0 H 152.51612 L 112.89397,73.522359 152.51612,28.575372 Z"
       style="fill:#00bcd4;fill-opacity:1;stroke:none;stroke-width:0.437233px;stroke-linecap:butt;stroke-linejoin:miter;stroke-opacity:1" />
    <rect
       y="28.574993"
       x="57.150002"
       height="164.04167"
       width="5.2916651"
       id="rect16"
       style="fill:#ffcc00;stroke:none;stroke-width:0.524981;paint-order:fill markers stroke" />
    <ellipse
       ry="5.253376"
       rx="5.3408484"
       cy="23.990181"
       cx="59.784012"
       id="path26"
       style="fill:#ffcc00;stroke:none;stroke-width:0.916708;paint-order:fill markers stroke" />
    <text
       id="text853"
       y="43.693325"
       x="179.7197"
       style="font-size:722.49px;line-height:1.25;font-family:Inter;-inkscape-font-specification:Inter;stroke-width:0.264583"
       xml:space="preserve"><tspan
         style="stroke-width:0.264583"
         y="43.693325"
         x="179.7197"
         id="tspan851"></tspan></text>
    <g
       style="font-size:150px;line-height:1.25;font-family:Inter;-inkscape-font-specification:Inter;stroke-width:0.264583"
       id="text857"
       aria-label="lag Linux">
      <path
         id="path867"
         style="font-size:150px;stroke-width:0.264583"
         d="M 172.46911,83.757907 V 192.84882 H 159.89809 V 83.757907 Z" />
      <path
         id="path869"
         style="font-size:150px;stroke-width:0.264583"
         d="m 219.42402,194.76643 q -7.77699,0 -14.11577,-2.92969 -6.33878,-2.98295 -10.06747,-8.57599 -3.7287,-5.64631 -3.7287,-13.63637 0,-7.03125 2.76989,-11.39914 2.76989,-4.42117 7.40412,-6.92472 4.63423,-2.50355 10.22727,-3.72869 5.64631,-1.27841 11.34588,-2.02415 7.45739,-0.95881 12.09162,-1.43821 4.6875,-0.53267 6.81818,-1.75781 2.18395,-1.22515 2.18395,-4.26137 v -0.42613 q 0,-7.88353 -4.31463,-12.25142 -4.26136,-4.3679 -12.94389,-4.3679 -9.00213,0 -14.11577,3.94176 -5.11363,3.94176 -7.19105,8.41619 l -11.93182,-4.26136 q 3.19603,-7.45739 8.52273,-11.61222 5.37997,-4.20809 11.71875,-5.85937 6.39205,-1.70455 12.57102,-1.70455 3.94176,0 9.0554,0.95881 5.1669,0.90554 9.96094,3.78196 4.8473,2.87642 8.04332,8.68253 3.19603,5.80611 3.19603,15.55398 v 53.90625 h -12.57103 v -11.07955 h -0.6392 q -1.27841,2.66335 -4.26137,5.69957 -2.98295,3.03623 -7.93679,5.16691 -4.95383,2.13068 -12.09161,2.13068 z m 1.91761,-11.29261 q 7.45739,0 12.57102,-2.92969 5.16691,-2.92969 7.77699,-7.56392 2.66335,-4.63423 2.66335,-9.74787 v -11.50568 q -0.799,0.9588 -3.51562,1.75781 -2.66335,0.74574 -6.17898,1.33168 -3.46236,0.53267 -6.76491,0.9588 -3.24929,0.37287 -5.27344,0.63921 -4.90057,0.6392 -9.16193,2.07741 -4.2081,1.38494 -6.81819,4.2081 -2.55681,2.76988 -2.55681,7.56392 0,6.55185 4.8473,9.90767 4.90057,3.30256 12.41122,3.30256 z" />
      <path
         id="path871"
         style="font-size:150px;stroke-width:0.264583"
         d="m 313.04085,225.23518 q -13.68963,0 -21.67969,-5.0071 -7.93679,-4.95384 -11.77202,-11.39915 l 10.01421,-7.03125 q 1.70454,2.23722 4.31463,5.11364 2.61008,2.92968 7.13778,5.06037 4.58097,2.18394 11.98509,2.18394 9.90767,0 16.35298,-4.79403 6.44531,-4.79403 6.44531,-15.02131 v -16.61931 h -1.06534 q -1.38494,2.23721 -3.94176,5.53977 -2.50355,3.24929 -7.24432,5.80611 -4.6875,2.50355 -12.67755,2.50355 -9.90767,0 -17.7912,-4.6875 -7.83025,-4.6875 -12.41122,-13.63637 -4.5277,-8.94886 -4.5277,-21.73295 0,-12.57102 4.42117,-21.89276 4.42116,-9.375 12.30468,-14.48863 7.88353,-5.16691 18.21733,-5.16691 7.99006,0 12.67756,2.66336 4.74077,2.61008 7.24432,5.9659 2.55682,3.30256 3.94176,5.43324 h 1.27841 v -12.99716 h 12.14489 v 84.16194 q 0,10.54687 -4.79404,17.15198 -4.74077,6.65839 -12.78409,9.74787 -7.99006,3.14276 -17.79119,3.14276 z m -0.42614,-44.95739 q 11.34588,0 17.36506,-7.67045 6.07244,-7.72372 6.07244,-21.30682 0,-13.26349 -5.96591,-21.62642 -5.96591,-8.41619 -17.47159,-8.41619 -7.99006,0 -13.31676,4.04829 -5.27344,4.0483 -7.93679,10.86648 -2.61008,6.81818 -2.61008,15.12784 0,12.78409 6.01917,20.88068 6.01918,8.09659 17.84446,8.09659 z" />
      <path
         id="path873"
         style="font-size:150px;stroke-width:0.264583"
         d="M 415.31358,192.84882 V 83.757907 h 13.21022 v 97.372163 h 50.71023 v 11.71875 z" />
      <path
         id="path875"
         style="font-size:150px;stroke-width:0.264583"
         d="m 497.98403,192.84882 v -81.81819 h 12.57102 v 81.81819 z m 6.39205,-95.45455 q -3.67543,0 -6.33878,-2.503551 -2.61009,-2.503551 -2.61009,-6.019176 0,-3.515625 2.61009,-6.019176 2.66335,-2.503551 6.33878,-2.503551 3.67542,0 6.28551,2.503551 2.66335,2.503551 2.66335,6.019176 0,3.515625 -2.66335,6.019176 -2.61009,2.503551 -6.28551,2.503551 z" />
      <path
         id="path877"
         style="font-size:150px;stroke-width:0.264583"
         d="m 546.00427,143.63007 v 49.21875 h -12.57102 v -81.81819 h 12.14488 v 12.7841 h 1.06535 q 2.87642,-6.23225 8.73579,-10.01421 5.85938,-3.83523 15.12784,-3.83523 12.41122,0 20.02841,7.61719 7.67046,7.61719 7.67046,23.2777 v 51.98864 h -12.57103 v -51.13637 q 0,-9.64133 -5.0071,-15.0213 -5.0071,-5.43324 -13.7429,-5.43324 -9.00213,0 -14.96804,5.85937 -5.91264,5.80611 -5.91264,16.51279 z" />
      <path
         id="path879"
         style="font-size:150px;stroke-width:0.264583"
         d="m 672.88637,159.39711 v -48.36648 h 12.57103 v 81.81819 h -12.57103 v -13.84944 h -0.85227 q -2.87642,6.23225 -8.94886,10.60015 -6.07245,4.31463 -15.34091,4.31463 -11.50568,0 -18.96307,-7.61719 -7.45739,-7.61719 -7.45739,-23.2777 V 111.03063 H 633.8949 V 162.167 q 0,8.94886 5.0071,14.27557 5.06037,5.3267 12.89062,5.3267 4.6875,0 9.5348,-2.39702 4.90057,-2.39701 8.20313,-7.35085 3.35582,-4.95383 3.35582,-12.62429 z" />
      <path
         id="path881"
         style="font-size:150px;stroke-width:0.264583"
         d="m 717.71059,111.03063 19.60227,33.45171 19.60228,-33.45171 h 14.48863 l -26.42045,40.9091 26.42045,40.90909 h -14.48863 l -19.60228,-31.74716 -19.60227,31.74716 h -14.48863 l 25.99431,-40.90909 -25.99431,-40.9091 z" />
    </g>
  </g>
</svg>
